STARTFONT 2.1
COMMENT
COMMENT Converted from OpenType font "..\ttf\ITC Avant Garde Gothic CE Book.otf" by "otf2bdf.exe 3.0".
COMMENT
FONT -FreeType-AvantGarde CE-Medium-R-Normal--28-200-100-100-P-129-ISO10646-1
SIZE 20 100 100
FONTBOUNDINGBOX 33 34 -1 -7
STARTPROPERTIES 19
FOUNDRY "FreeType"
FAMILY_NAME "AvantGarde CE"
WEIGHT_NAME "Medium"
SLANT "R"
SETWIDTH_NAME "Normal"
ADD_STYLE_NAME ""
PIXEL_SIZE 28
POINT_SIZE 200
RESOLUTION_X 100
RESOLUTION_Y 100
SPACING "P"
AVERAGE_WIDTH 129
CHARSET_REGISTRY "ISO10646"
CHARSET_ENCODING "1"
FONT_ASCENT 20
FONT_DESCENT 5
COPYRIGHT "Copyright (c) 1985, 1987, 1989, 1990, 1991, 1992, 1997 Adobe Systems Incorporated.  All Rights Reserved.ITC Avant Garde Gothic is a registered trademark of International Typeface Corporation."
_OTF_FONTFILE "..\ttf\ITC Avant Garde Gothic CE Book.otf"
_OTF_PSNAME "AvantGardeCE-Book"
ENDPROPERTIES
CHARS 260
STARTCHAR 0020
ENCODING 32
SWIDTH 288 0
DWIDTH 8 0
BBX 0 0 0 0
BITMAP
ENDCHAR
STARTCHAR 0021
ENCODING 33
SWIDTH 288 0
DWIDTH 8 0
BBX 2 20 3 0
BITMAP
C0
C0
C0
C0
C0
C0
C0
C0
C0
C0
C0
C0
C0
C0
C0
00
00
C0
C0
C0
ENDCHAR
STARTCHAR 0022
ENCODING 34
SWIDTH 324 0
DWIDTH 9 0
BBX 6 8 1 11
BITMAP
CC
CC
CC
CC
CC
CC
CC
CC
ENDCHAR
STARTCHAR 0023
ENCODING 35
SWIDTH 540 0
DWIDTH 15 0
BBX 13 20 1 0
BITMAP
0C20
0C60
0C60
0C60
0C60
7FF8
7FF8
1840
18C0
18C0
18C0
18C0
FFF0
FFF0
1080
3080
3180
3180
3180
3180
ENDCHAR
STARTCHAR 0024
ENCODING 36
SWIDTH 540 0
DWIDTH 15 0
BBX 11 24 2 -2
BITMAP
0600
0600
0F00
3FC0
70C0
E060
C060
C000
C000
6000
7800
1F00
07C0
00C0
0060
0060
C060
C060
E060
70C0
3F80
0600
0600
0600
ENDCHAR
STARTCHAR 0025
ENCODING 37
SWIDTH 792 0
DWIDTH 22 0
BBX 20 20 1 0
BITMAP
1E0300
7F8300
618600
C0C400
C0CC00
C0C800
619800
7FB000
1E3000
006000
004000
00CFC0
009860
01B030
033030
033030
063030
041860
0C1FE0
080780
ENDCHAR
STARTCHAR 0026
ENCODING 38
SWIDTH 756 0
DWIDTH 21 0
BBX 19 20 1 0
BITMAP
03C000
0FF000
1C3000
181800
181800
181800
0C3000
0FE0C0
07C180
1DC380
30E300
607700
C03E00
C01C00
C00E00
C01F00
603B80
7071C0
3FE0E0
0F8040
ENDCHAR
STARTCHAR 0027
ENCODING 39
SWIDTH 216 0
DWIDTH 6 0
BBX 2 8 2 11
BITMAP
C0
C0
C0
C0
C0
C0
C0
C0
ENDCHAR
STARTCHAR 0028
ENCODING 40
SWIDTH 360 0
DWIDTH 10 0
BBX 8 25 1 -5
BITMAP
01
03
06
0C
18
30
30
60
60
C0
C0
C0
C0
C0
C0
C0
60
60
30
30
18
1C
0E
03
01
ENDCHAR
STARTCHAR 0029
ENCODING 41
SWIDTH 360 0
DWIDTH 10 0
BBX 8 26 1 -4
BITMAP
C0
E0
70
38
18
0C
0E
06
06
03
03
03
03
03
03
03
06
06
06
0C
1C
18
30
E0
C0
80
ENDCHAR
STARTCHAR 002A
ENCODING 42
SWIDTH 432 0
DWIDTH 12 0
BBX 8 8 2 11
BITMAP
18
18
99
FF
38
3C
64
44
ENDCHAR
STARTCHAR 002B
ENCODING 43
SWIDTH 612 0
DWIDTH 17 0
BBX 14 14 1 0
BITMAP
0300
0300
0300
0300
0300
0300
FFFC
FFFC
0300
0300
0300
0300
0300
0300
ENDCHAR
STARTCHAR 002C
ENCODING 44
SWIDTH 288 0
DWIDTH 8 0
BBX 4 5 0 -2
BITMAP
30
20
60
40
C0
ENDCHAR
STARTCHAR 002D
ENCODING 45
SWIDTH 324 0
DWIDTH 9 0
BBX 7 2 1 7
BITMAP
FE
FE
ENDCHAR
STARTCHAR 002E
ENCODING 46
SWIDTH 288 0
DWIDTH 8 0
BBX 2 3 3 1
BITMAP
C0
C0
C0
ENDCHAR
STARTCHAR 002F
ENCODING 47
SWIDTH 432 0
DWIDTH 12 0
BBX 10 23 1 -4
BITMAP
00C0
0180
0180
0180
0300
0300
0300
0600
0600
0600
0C00
0C00
0C00
1800
1800
1800
3000
3000
3000
6000
6000
6000
C000
ENDCHAR
STARTCHAR 0030
ENCODING 48
SWIDTH 540 0
DWIDTH 15 0
BBX 13 20 1 0
BITMAP
0F80
3FE0
7070
6030
C018
C018
C018
C018
C018
C018
C018
C018
C018
C018
C018
C018
6030
7070
3FE0
0F80
ENDCHAR
STARTCHAR 0031
ENCODING 49
SWIDTH 540 0
DWIDTH 15 0
BBX 5 20 4 0
BITMAP
F8
F8
18
18
18
18
18
18
18
18
18
18
18
18
18
18
18
18
18
18
ENDCHAR
STARTCHAR 0032
ENCODING 50
SWIDTH 540 0
DWIDTH 15 0
BBX 13 20 1 0
BITMAP
0F80
3FE0
7070
6030
C018
C018
C018
0018
0030
0070
00E0
01C0
0380
0700
0E00
1800
3000
6000
FFF8
FFF8
ENDCHAR
STARTCHAR 0033
ENCODING 51
SWIDTH 540 0
DWIDTH 15 0
BBX 12 20 1 0
BITMAP
0F00
3FC0
30C0
6060
6060
0060
00E0
07C0
07C0
00E0
0060
0030
0030
C030
C030
C030
6060
70E0
3FC0
0F00
ENDCHAR
STARTCHAR 0034
ENCODING 52
SWIDTH 540 0
DWIDTH 15 0
BBX 14 20 0 0
BITMAP
0070
0070
00F0
01F0
01B0
0330
0630
0630
0C30
1830
3830
3030
6030
E030
FFFC
FFFC
0030
0030
0030
0030
ENDCHAR
STARTCHAR 0035
ENCODING 53
SWIDTH 540 0
DWIDTH 15 0
BBX 14 20 0 0
BITMAP
1FF0
1FF0
1800
1800
1000
3000
3780
3FE0
3870
3018
001C
000C
000C
C00C
600C
600C
7018
3830
1FE0
07C0
ENDCHAR
STARTCHAR 0036
ENCODING 54
SWIDTH 540 0
DWIDTH 15 0
BBX 13 20 1 0
BITMAP
0180
0300
0600
0600
0C00
1800
1F80
3FE0
78F0
6030
E038
C018
C018
C018
C018
E018
6030
7070
3FE0
0F80
ENDCHAR
STARTCHAR 0037
ENCODING 55
SWIDTH 540 0
DWIDTH 15 0
BBX 12 20 2 0
BITMAP
FFF0
FFF0
0030
0060
0060
00C0
00C0
0180
0180
0300
0300
0600
0600
0E00
0C00
1C00
1800
1800
3000
3000
ENDCHAR
STARTCHAR 0038
ENCODING 56
SWIDTH 540 0
DWIDTH 15 0
BBX 13 20 1 0
BITMAP
0F80
1FC0
3060
6030
6030
6030
7030
38E0
1FC0
3FE0
7070
6030
C018
C018
C018
C018
6030
7070
3FE0
0F80
ENDCHAR
STARTCHAR 0039
ENCODING 57
SWIDTH 540 0
DWIDTH 15 0
BBX 13 20 1 0
BITMAP
0F80
3FE0
3070
6030
C018
C018
C018
C018
C018
E018
6030
3870
1FE0
0FC0
00C0
0180
0300
0300
0600
0C00
ENDCHAR
STARTCHAR 003A
ENCODING 58
SWIDTH 288 0
DWIDTH 8 0
BBX 2 15 3 0
BITMAP
C0
C0
C0
00
00
00
00
00
00
00
00
00
C0
C0
C0
ENDCHAR
STARTCHAR 003B
ENCODING 59
SWIDTH 288 0
DWIDTH 8 0
BBX 4 17 1 -2
BITMAP
30
30
30
00
00
00
00
00
00
00
00
00
30
60
60
C0
C0
ENDCHAR
STARTCHAR 003C
ENCODING 60
SWIDTH 612 0
DWIDTH 17 0
BBX 14 14 1 1
BITMAP
000C
003C
00F0
03C0
1E00
7800
E000
F000
3C00
0F00
03C0
00F8
001C
0004
ENDCHAR
STARTCHAR 003D
ENCODING 61
SWIDTH 612 0
DWIDTH 17 0
BBX 14 8 1 3
BITMAP
FFFC
FFFC
0000
0000
0000
0000
FFFC
FFFC
ENDCHAR
STARTCHAR 003E
ENCODING 62
SWIDTH 612 0
DWIDTH 17 0
BBX 14 14 1 1
BITMAP
C000
F000
3C00
0F00
01E0
0078
001C
003C
00F0
03C0
0F00
7C00
E000
8000
ENDCHAR
STARTCHAR 003F
ENCODING 63
SWIDTH 576 0
DWIDTH 16 0
BBX 12 20 2 0
BITMAP
0F80
3FC0
70E0
6070
C030
C030
C030
0030
0060
00C0
0180
0300
0300
0600
0600
0000
0000
0600
0600
0600
ENDCHAR
STARTCHAR 0040
ENCODING 64
SWIDTH 864 0
DWIDTH 24 0
BBX 20 20 2 0
BITMAP
01FC00
07FF00
1C01C0
3800C0
300060
60FB70
61FF30
C30F30
C60630
C60630
C60630
C60630
C60E60
631E60
63F7C0
30E380
380000
1C0000
07FFC0
01FE00
ENDCHAR
STARTCHAR 0041
ENCODING 65
SWIDTH 756 0
DWIDTH 21 0
BBX 20 20 0 0
BITMAP
006000
00F000
00F000
01B800
019800
039C00
030C00
030C00
060600
060600
0C0300
0FFF00
1FFF80
180180
3801C0
3000C0
3000C0
600060
600060
C00030
ENDCHAR
STARTCHAR 0042
ENCODING 66
SWIDTH 576 0
DWIDTH 16 0
BBX 13 20 2 0
BITMAP
FF80
FFC0
C0E0
C070
C030
C030
C030
C0E0
FFC0
FFE0
C070
C030
C018
C018
C018
C018
C038
C070
FFE0
FF80
ENDCHAR
STARTCHAR 0043
ENCODING 67
SWIDTH 828 0
DWIDTH 23 0
BBX 19 20 1 0
BITMAP
01FC00
07FF00
0E03C0
1800E0
300060
600000
600000
C00000
C00000
C00000
C00000
C00000
E00000
600000
700000
300060
1C00C0
0E0380
07FF00
01FC00
ENDCHAR
STARTCHAR 0044
ENCODING 68
SWIDTH 756 0
DWIDTH 21 0
BBX 17 20 2 0
BITMAP
FFC000
FFF000
C03C00
C00E00
C00600
C00300
C00300
C00180
C00180
C00180
C00180
C00180
C00180
C00300
C00300
C00600
C00C00
C03800
FFF000
FFC000
ENDCHAR
STARTCHAR 0045
ENCODING 69
SWIDTH 540 0
DWIDTH 15 0
BBX 11 20 2 0
BITMAP
FFE0
FFE0
C000
C000
C000
C000
C000
C000
C000
FFE0
FFE0
C000
C000
C000
C000
C000
C000
C000
FFE0
FFE0
ENDCHAR
STARTCHAR 0046
ENCODING 70
SWIDTH 468 0
DWIDTH 13 0
BBX 10 20 2 0
BITMAP
FFC0
FFC0
C000
C000
C000
C000
C000
C000
C000
FFC0
FFC0
C000
C000
C000
C000
C000
C000
C000
C000
C000
ENDCHAR
STARTCHAR 0047
ENCODING 71
SWIDTH 864 0
DWIDTH 24 0
BBX 21 20 1 0
BITMAP
00FC00
07FF00
0E03C0
1C00E0
300070
700030
600000
600000
C00000
C00000
C00000
C0FFF8
C0FFF8
600018
600030
300070
1C00E0
0E03C0
07FF00
01FC00
ENDCHAR
STARTCHAR 0048
ENCODING 72
SWIDTH 684 0
DWIDTH 19 0
BBX 14 20 2 0
BITMAP
C00C
C00C
C00C
C00C
C00C
C00C
C00C
C00C
C00C
FFFC
FFFC
C00C
C00C
C00C
C00C
C00C
C00C
C00C
C00C
C00C
ENDCHAR
STARTCHAR 0049
ENCODING 73
SWIDTH 216 0
DWIDTH 6 0
BBX 2 20 2 0
BITMAP
C0
C0
C0
C0
C0
C0
C0
C0
C0
C0
C0
C0
C0
C0
C0
C0
C0
C0
C0
C0
ENDCHAR
STARTCHAR 004A
ENCODING 74
SWIDTH 468 0
DWIDTH 13 0
BBX 11 20 0 0
BITMAP
0060
0060
0060
0060
0060
0060
0060
0060
0060
0060
0060
0060
0060
0060
0060
C060
6060
70C0
3F80
1F00
ENDCHAR
STARTCHAR 004B
ENCODING 75
SWIDTH 576 0
DWIDTH 16 0
BBX 13 20 2 0
BITMAP
C018
C038
C070
C0E0
C0C0
C180
C380
C700
CE00
CC00
DC00
F600
F700
E380
C1C0
C0C0
C060
C070
C038
C018
ENDCHAR
STARTCHAR 004C
ENCODING 76
SWIDTH 468 0
DWIDTH 13 0
BBX 10 20 2 0
BITMAP
C000
C000
C000
C000
C000
C000
C000
C000
C000
C000
C000
C000
C000
C000
C000
C000
C000
C000
FFC0
FFC0
ENDCHAR
STARTCHAR 004D
ENCODING 77
SWIDTH 936 0
DWIDTH 26 0
BBX 21 20 2 0
BITMAP
E00038
F00078
F00078
D800D8
D800D8
DC00D8
CC0198
CC0198
C60318
C60318
C30618
C30618
C38E18
C18C18
C18C18
C0D818
C0D818
C07018
C07018
C07018
ENDCHAR
STARTCHAR 004E
ENCODING 78
SWIDTH 756 0
DWIDTH 21 0
BBX 16 20 2 0
BITMAP
E003
F003
F003
D803
DC03
CC03
C603
C703
C303
C183
C0C3
C0E3
C063
C033
C03B
C01B
C00F
C00F
C007
C003
ENDCHAR
STARTCHAR 004F
ENCODING 79
SWIDTH 864 0
DWIDTH 24 0
BBX 21 20 1 0
BITMAP
01FC00
07FF00
0E03C0
1800E0
300060
600030
600030
C00018
C00018
C00018
C00018
C00018
C00018
600030
600030
300060
1C00C0
0E0380
07FF00
01FC00
ENDCHAR
STARTCHAR 0050
ENCODING 80
SWIDTH 576 0
DWIDTH 16 0
BBX 13 20 2 0
BITMAP
FF80
FFE0
C070
C038
C018
C018
C018
C018
C038
C070
FFE0
FF80
C000
C000
C000
C000
C000
C000
C000
C000
ENDCHAR
STARTCHAR 0051
ENCODING 81
SWIDTH 864 0
DWIDTH 24 0
BBX 22 20 1 0
BITMAP
00FE00
07FF80
0F03C0
1C00E0
300030
700038
600018
60001C
C0000C
C0000C
C0000C
C0000C
DFE00C
7FF818
601E18
300730
1801E0
0E01E0
07FFFC
01FC1C
ENDCHAR
STARTCHAR 0052
ENCODING 82
SWIDTH 612 0
DWIDTH 17 0
BBX 14 20 2 0
BITMAP
FFC0
FFF0
C078
C018
C00C
C00C
C00C
C00C
C00C
C018
C078
CFF0
C7C0
C300
C180
C0C0
C0E0
C070
C030
C018
ENDCHAR
STARTCHAR 0053
ENCODING 83
SWIDTH 504 0
DWIDTH 14 0
BBX 11 20 1 0
BITMAP
1F00
3FC0
60C0
C060
C060
C000
C000
7000
7C00
1F80
03C0
00C0
0060
0060
C060
C060
E060
70C0
3F80
1F00
ENDCHAR
STARTCHAR 0054
ENCODING 84
SWIDTH 432 0
DWIDTH 12 0
BBX 12 20 0 0
BITMAP
FFF0
FFF0
0600
0600
0600
0600
0600
0600
0600
0600
0600
0600
0600
0600
0600
0600
0600
0600
0600
0600
ENDCHAR
STARTCHAR 0055
ENCODING 85
SWIDTH 648 0
DWIDTH 18 0
BBX 14 20 2 0
BITMAP
C00C
C00C
C00C
C00C
C00C
C00C
C00C
C00C
C00C
C00C
C00C
C00C
C00C
C00C
C00C
E018
6018
7030
3FE0
0FC0
ENDCHAR
STARTCHAR 0056
ENCODING 86
SWIDTH 720 0
DWIDTH 20 0
BBX 18 20 1 0
BITMAP
C000C0
C00180
E00180
600380
600300
300300
300600
380600
180C00
180C00
0C0C00
0C1800
061800
063000
063000
037000
036000
01E000
01C000
01C000
ENDCHAR
STARTCHAR 0057
ENCODING 87
SWIDTH 972 0
DWIDTH 27 0
BBX 25 20 1 0
BITMAP
C0180180
C01C0180
C01C0300
E03C0300
603C0300
60360600
60660600
30660600
30630600
30630C00
30C30C00
18C30C00
18C19800
18C19800
0D819800
0D819800
0D80F000
0F00F000
0700F000
07006000
ENDCHAR
STARTCHAR 0058
ENCODING 88
SWIDTH 612 0
DWIDTH 17 0
BBX 16 20 0 0
BITMAP
6006
700E
300C
1818
1C38
0C30
0660
07E0
03C0
0180
03C0
03C0
0660
0E70
0C30
1818
381C
300C
6006
E007
ENDCHAR
STARTCHAR 0059
ENCODING 89
SWIDTH 576 0
DWIDTH 16 0
BBX 16 20 0 0
BITMAP
E003
6006
700E
300C
381C
1818
1C38
0C30
0E60
0660
03C0
03C0
0180
0180
0180
0180
0180
0180
0180
0180
ENDCHAR
STARTCHAR 005A
ENCODING 90
SWIDTH 468 0
DWIDTH 13 0
BBX 12 20 0 0
BITMAP
FFF0
FFF0
0070
0060
00C0
00C0
0180
0380
0300
0600
0600
0C00
1C00
1800
3000
3000
6000
E000
FFF0
FFF0
ENDCHAR
STARTCHAR 005B
ENCODING 91
SWIDTH 360 0
DWIDTH 10 0
BBX 5 25 4 -6
BITMAP
08
18
30
60
60
C0
C0
C0
C0
C0
C0
C0
C0
C0
C0
C0
C0
C0
C0
C0
C0
60
70
38
18
ENDCHAR
STARTCHAR 005C
ENCODING 92
SWIDTH 612 0
DWIDTH 17 0
BBX 10 23 3 -4
BITMAP
C000
E000
6000
6000
7000
3000
3000
3800
1800
1800
0C00
0C00
0C00
0600
0600
0600
0300
0300
0300
0180
0180
0180
00C0
ENDCHAR
STARTCHAR 005D
ENCODING 93
SWIDTH 360 0
DWIDTH 10 0
BBX 5 25 1 -6
BITMAP
80
C0
E0
30
30
18
18
18
18
18
18
18
18
18
18
18
18
18
18
18
18
30
70
E0
C0
ENDCHAR
STARTCHAR 005E
ENCODING 94
SWIDTH 612 0
DWIDTH 17 0
BBX 14 12 1 8
BITMAP
0300
0780
0780
0CC0
0CC0
1860
1860
3030
3030
6018
6018
C00C
ENDCHAR
STARTCHAR 005F
ENCODING 95
SWIDTH 504 0
DWIDTH 14 0
BBX 14 2 0 -3
BITMAP
FFFC
FFFC
ENDCHAR
STARTCHAR 0060
ENCODING 96
SWIDTH 396 0
DWIDTH 11 0
BBX 6 5 2 17
BITMAP
40
E0
78
1C
04
ENDCHAR
STARTCHAR 0061
ENCODING 97
SWIDTH 684 0
DWIDTH 19 0
BBX 16 15 1 0
BITMAP
07E3
1FFB
381F
700F
6007
C003
C003
C003
C003
C003
6007
700F
381F
1FFB
07E3
ENDCHAR
STARTCHAR 0062
ENCODING 98
SWIDTH 684 0
DWIDTH 19 0
BBX 16 20 2 0
BITMAP
C000
C000
C000
C000
C000
C7E0
DFF8
F81C
F00E
E006
C003
C003
C003
C003
C003
E006
F00E
F81C
DFF8
C7E0
ENDCHAR
STARTCHAR 0063
ENCODING 99
SWIDTH 648 0
DWIDTH 18 0
BBX 15 15 1 0
BITMAP
07E0
1FF8
381C
700E
6006
C000
C000
C000
C000
C000
6006
7006
381C
1FF8
07E0
ENDCHAR
STARTCHAR 0064
ENCODING 100
SWIDTH 684 0
DWIDTH 19 0
BBX 16 20 1 0
BITMAP
0003
0003
0003
0003
0003
07E3
1FFB
381F
700F
6007
C003
C003
C003
C003
C003
6007
700F
381F
1FFB
07E3
ENDCHAR
STARTCHAR 0065
ENCODING 101
SWIDTH 648 0
DWIDTH 18 0
BBX 15 15 1 0
BITMAP
07C0
1FF0
3818
600C
4006
C006
FFFE
FFFE
C000
C000
6006
600C
3818
1FF0
07C0
ENDCHAR
STARTCHAR 0066
ENCODING 102
SWIDTH 324 0
DWIDTH 9 0
BBX 8 20 1 0
BITMAP
07
1F
38
30
30
FF
FF
30
30
30
30
30
30
30
30
30
30
30
30
30
ENDCHAR
STARTCHAR 0067
ENCODING 103
SWIDTH 684 0
DWIDTH 19 0
BBX 16 20 1 -5
BITMAP
07E3
1FFB
381F
700F
6007
C003
C003
C003
C003
C003
6007
700F
381F
1FFB
07E3
6003
7006
380E
1FFC
07F0
ENDCHAR
STARTCHAR 0068
ENCODING 104
SWIDTH 612 0
DWIDTH 17 0
BBX 13 20 2 0
BITMAP
C000
C000
C000
C000
C000
CF80
DFE0
F070
E030
C018
C018
C018
C018
C018
C018
C018
C018
C018
C018
C018
ENDCHAR
STARTCHAR 0069
ENCODING 105
SWIDTH 216 0
DWIDTH 6 0
BBX 2 20 2 0
BITMAP
C0
C0
C0
00
00
C0
C0
C0
C0
C0
C0
C0
C0
C0
C0
C0
C0
C0
C0
C0
ENDCHAR
STARTCHAR 006A
ENCODING 106
SWIDTH 216 0
DWIDTH 6 0
BBX 5 25 -1 -5
BITMAP
18
18
18
00
00
18
18
18
18
18
18
18
18
18
18
18
18
18
18
18
18
18
30
F0
C0
ENDCHAR
STARTCHAR 006B
ENCODING 107
SWIDTH 504 0
DWIDTH 14 0
BBX 11 20 2 0
BITMAP
C000
C000
C000
C000
C000
C060
C0C0
C180
C380
C700
C600
CC00
DC00
FC00
F600
E700
C380
C1C0
C0C0
C060
ENDCHAR
STARTCHAR 006C
ENCODING 108
SWIDTH 216 0
DWIDTH 6 0
BBX 2 20 2 0
BITMAP
C0
C0
C0
C0
C0
C0
C0
C0
C0
C0
C0
C0
C0
C0
C0
C0
C0
C0
C0
C0
ENDCHAR
STARTCHAR 006D
ENCODING 109
SWIDTH 936 0
DWIDTH 26 0
BBX 22 15 2 0
BITMAP
CF03C0
FFCFF0
E0F838
E07818
C0300C
C0300C
C0300C
C0300C
C0300C
C0300C
C0300C
C0300C
C0300C
C0300C
C0300C
ENDCHAR
STARTCHAR 006E
ENCODING 110
SWIDTH 612 0
DWIDTH 17 0
BBX 13 15 2 0
BITMAP
CF80
DFE0
F070
E030
C018
C018
C018
C018
C018
C018
C018
C018
C018
C018
C018
ENDCHAR
STARTCHAR 006F
ENCODING 111
SWIDTH 648 0
DWIDTH 18 0
BBX 16 15 1 0
BITMAP
07E0
1FF8
381C
700E
6006
C003
C003
C003
C003
C003
6006
700E
381C
1FF8
07E0
ENDCHAR
STARTCHAR 0070
ENCODING 112
SWIDTH 684 0
DWIDTH 19 0
BBX 16 20 2 -5
BITMAP
C7E0
DFF8
F81C
F00E
E006
C003
C003
C003
C003
C003
E006
F00E
F81C
DFF8
C7E0
C000
C000
C000
C000
C000
ENDCHAR
STARTCHAR 0071
ENCODING 113
SWIDTH 684 0
DWIDTH 19 0
BBX 16 20 1 -5
BITMAP
07E3
1FFB
381F
700F
6007
C003
C003
C003
C003
C003
6007
700F
381F
1FFB
07E3
0003
0003
0003
0003
0003
ENDCHAR
STARTCHAR 0072
ENCODING 114
SWIDTH 288 0
DWIDTH 8 0
BBX 6 15 2 0
BITMAP
CC
DC
F0
E0
C0
C0
C0
C0
C0
C0
C0
C0
C0
C0
C0
ENDCHAR
STARTCHAR 0073
ENCODING 115
SWIDTH 396 0
DWIDTH 11 0
BBX 9 15 1 0
BITMAP
3C00
7E00
C300
C300
C000
E000
7C00
1F00
0700
0180
C180
C180
E380
7F00
3E00
ENDCHAR
STARTCHAR 0074
ENCODING 116
SWIDTH 324 0
DWIDTH 9 0
BBX 9 20 0 0
BITMAP
1800
1800
1800
1800
1800
FF80
FF80
1800
1800
1800
1800
1800
1800
1800
1800
1800
1800
1800
1800
1800
ENDCHAR
STARTCHAR 0075
ENCODING 117
SWIDTH 612 0
DWIDTH 17 0
BBX 13 15 2 0
BITMAP
C018
C018
C018
C018
C018
C018
C018
C018
C018
C018
C018
6038
7078
3FD8
0F98
ENDCHAR
STARTCHAR 0076
ENCODING 118
SWIDTH 540 0
DWIDTH 15 0
BBX 14 15 1 0
BITMAP
C00C
C018
C018
6038
6030
3030
3060
3860
18C0
18C0
0CC0
0D80
0780
0700
0700
ENDCHAR
STARTCHAR 0077
ENCODING 119
SWIDTH 828 0
DWIDTH 23 0
BBX 22 15 0 0
BITMAP
C0000C
600018
603018
603018
307830
307830
305830
18CC60
18CC60
0CCCC0
0D86C0
0D86C0
078780
070380
070380
ENDCHAR
STARTCHAR 0078
ENCODING 120
SWIDTH 468 0
DWIDTH 13 0
BBX 12 15 0 0
BITMAP
E070
6060
30C0
39C0
1980
0F00
0F00
0600
0F00
0F00
1980
30C0
30C0
6060
E070
ENDCHAR
STARTCHAR 0079
ENCODING 121
SWIDTH 540 0
DWIDTH 15 0
BBX 14 20 0 -5
BITMAP
C00C
6018
6018
6030
3030
3030
1860
1860
1CC0
0CC0
0D80
0780
0780
0300
0300
0600
0600
0C00
0C00
1800
ENDCHAR
STARTCHAR 007A
ENCODING 122
SWIDTH 432 0
DWIDTH 12 0
BBX 11 15 0 0
BITMAP
FFE0
FFE0
00C0
0180
0380
0300
0600
0C00
1C00
1800
3000
7000
6000
FFE0
FFE0
ENDCHAR
STARTCHAR 007B
ENCODING 123
SWIDTH 360 0
DWIDTH 10 0
BBX 7 25 2 -5
BITMAP
1E
1E
30
30
30
30
30
30
30
30
30
E0
C0
60
30
30
30
30
30
30
30
30
30
1E
1E
ENDCHAR
STARTCHAR 007C
ENCODING 124
SWIDTH 684 0
DWIDTH 19 0
BBX 2 27 8 -6
BITMAP
C0
C0
C0
C0
C0
C0
C0
C0
C0
C0
C0
C0
C0
C0
C0
C0
C0
C0
C0
C0
C0
C0
C0
C0
C0
C0
C0
ENDCHAR
STARTCHAR 007D
ENCODING 125
SWIDTH 360 0
DWIDTH 10 0
BBX 8 25 0 -5
BITMAP
F0
F8
18
18
18
18
18
18
18
18
1C
0F
03
0E
1C
18
18
18
18
18
18
18
18
F8
F0
ENDCHAR
STARTCHAR 007E
ENCODING 126
SWIDTH 612 0
DWIDTH 17 0
BBX 13 4 2 5
BITMAP
3810
7E18
C7F0
01E0
ENDCHAR
STARTCHAR 00A0
ENCODING 160
SWIDTH 288 0
DWIDTH 8 0
BBX 0 0 0 0
BITMAP
ENDCHAR
STARTCHAR 00A3
ENCODING 163
SWIDTH 540 0
DWIDTH 15 0
BBX 15 20 0 0
BITMAP
07C0
1FF0
3838
3018
600C
600C
6000
6000
7000
FFF0
FFF0
0C00
0600
0306
0306
0306
030E
061C
7FF8
7FE0
ENDCHAR
STARTCHAR 00A4
ENCODING 164
SWIDTH 540 0
DWIDTH 15 0
BBX 14 14 1 2
BITMAP
C00C
E79C
7FF8
3870
3030
6018
6018
6018
6018
3030
3870
7FF8
E79C
C00C
ENDCHAR
STARTCHAR 00A6
ENCODING 166
SWIDTH 684 0
DWIDTH 19 0
BBX 2 23 8 -4
BITMAP
C0
C0
C0
C0
C0
C0
C0
C0
C0
00
00
00
00
00
C0
C0
C0
C0
C0
C0
C0
C0
C0
ENDCHAR
STARTCHAR 00A7
ENCODING 167
SWIDTH 612 0
DWIDTH 17 0
BBX 12 24 2 -4
BITMAP
0F80
3FC0
30E0
6060
6000
6000
3000
3C00
6F80
C1C0
C060
C030
6030
7830
1E20
07E0
01C0
00E0
6060
6060
6060
30C0
1FC0
0F00
ENDCHAR
STARTCHAR 00A8
ENCODING 168
SWIDTH 360 0
DWIDTH 10 0
BBX 6 3 2 18
BITMAP
CC
CC
CC
ENDCHAR
STARTCHAR 00A9
ENCODING 169
SWIDTH 756 0
DWIDTH 21 0
BBX 21 20 0 0
BITMAP
01FC00
078F00
1C0180
38F0E0
33FC60
670630
660230
CC0318
CC0018
CC0018
CC0018
CC0018
C60218
670630
63FC30
30F860
3800C0
1C0180
079F00
01F800
ENDCHAR
STARTCHAR 00AB
ENCODING 171
SWIDTH 432 0
DWIDTH 12 0
BBX 9 11 1 2
BITMAP
1100
3180
3300
6300
E600
C600
E600
6300
3300
3180
1100
ENDCHAR
STARTCHAR 00AC
ENCODING 172
SWIDTH 612 0
DWIDTH 17 0
BBX 14 8 1 3
BITMAP
FFFC
FFFC
000C
000C
000C
000C
000C
000C
ENDCHAR
STARTCHAR 00AD
ENCODING 173
SWIDTH 324 0
DWIDTH 9 0
BBX 7 2 1 7
BITMAP
FE
FE
ENDCHAR
STARTCHAR 00AE
ENCODING 174
SWIDTH 756 0
DWIDTH 21 0
BBX 21 20 0 0
BITMAP
01FC00
078F00
1C01C0
3BF8E0
33FC70
630630
630638
C30618
C30E18
C3F818
C3FC18
C30618
C30618
630630
630630
330660
1800C0
0C0180
07CF00
01FC00
ENDCHAR
STARTCHAR 00B0
ENCODING 176
SWIDTH 396 0
DWIDTH 11 0
BBX 9 9 1 11
BITMAP
1C00
7F00
6300
C180
C180
C180
6300
7F00
1C00
ENDCHAR
STARTCHAR 00B1
ENCODING 177
SWIDTH 612 0
DWIDTH 17 0
BBX 14 15 1 -1
BITMAP
0300
0300
0300
0300
0300
FFFC
FFFC
0300
0300
0300
0300
0300
0000
FFFC
FFFC
ENDCHAR
STARTCHAR 00B4
ENCODING 180
SWIDTH 360 0
DWIDTH 10 0
BBX 6 4 2 18
BITMAP
1C
38
E0
40
ENDCHAR
STARTCHAR 00B5
ENCODING 181
SWIDTH 612 0
DWIDTH 17 0
BBX 12 20 2 -5
BITMAP
C030
C030
C030
C030
C030
C030
C030
C030
C030
C030
C030
E070
F0F0
FFB0
CF30
C000
C000
C000
C000
C000
ENDCHAR
STARTCHAR 00B6
ENCODING 182
SWIDTH 576 0
DWIDTH 16 0
BBX 15 23 1 -4
BITMAP
1FFE
3FFE
7F18
FF18
FF18
FF18
FF18
FF18
7F18
3F18
0F18
0318
0318
0318
0318
0318
0318
0318
0318
0318
0318
0318
0318
ENDCHAR
STARTCHAR 00B7
ENCODING 183
SWIDTH 288 0
DWIDTH 8 0
BBX 2 3 3 5
BITMAP
C0
C0
C0
ENDCHAR
STARTCHAR 00B8
ENCODING 184
SWIDTH 324 0
DWIDTH 9 0
BBX 5 6 2 -7
BITMAP
20
70
48
08
C8
70
ENDCHAR
STARTCHAR 00BB
ENCODING 187
SWIDTH 432 0
DWIDTH 12 0
BBX 9 11 1 2
BITMAP
4400
C600
6600
6300
3300
3180
3300
6300
6600
C600
4400
ENDCHAR
STARTCHAR 00C1
ENCODING 193
SWIDTH 756 0
DWIDTH 21 0
BBX 20 26 0 0
BITMAP
000800
003800
00F000
01C000
008000
000000
006000
00F000
00F000
01B800
019800
039C00
030C00
030C00
060600
060600
0C0300
0FFF00
1FFF80
180180
3801C0
3000C0
3000C0
600060
600060
C00030
ENDCHAR
STARTCHAR 00C2
ENCODING 194
SWIDTH 756 0
DWIDTH 21 0
BBX 20 25 0 0
BITMAP
00F000
01F800
030C00
000000
000000
006000
00F000
00F000
01B800
019800
039C00
030C00
030C00
060600
060600
0C0300
0FFF00
1FFF80
180180
3801C0
3000C0
3000C0
600060
600060
C00070
ENDCHAR
STARTCHAR 00C4
ENCODING 196
SWIDTH 756 0
DWIDTH 21 0
BBX 20 25 0 0
BITMAP
019800
019800
019800
000000
000000
006000
00F000
00F000
01B800
019800
039C00
030C00
030C00
060600
060600
0C0300
0FFF00
1FFF80
180180
180180
3000C0
3000C0
6000E0
600060
E00070
ENDCHAR
STARTCHAR 00C7
ENCODING 199
SWIDTH 828 0
DWIDTH 23 0
BBX 20 26 1 -7
BITMAP
01FC00
07FF00
0E03C0
1800E0
300070
600000
600000
C00000
C00000
C00000
C00000
C00000
E00000
600000
700000
380060
1C00E0
0E03C0
07FF00
01FC00
004000
007000
004800
000800
00C800
007000
ENDCHAR
STARTCHAR 00C9
ENCODING 201
SWIDTH 540 0
DWIDTH 15 0
BBX 11 26 2 0
BITMAP
0100
0300
0F00
3C00
1000
0000
FFE0
FFE0
C000
C000
C000
C000
C000
C000
C000
FFE0
FFE0
C000
C000
C000
C000
C000
C000
C000
FFE0
FFE0
ENDCHAR
STARTCHAR 00CB
ENCODING 203
SWIDTH 540 0
DWIDTH 15 0
BBX 11 25 2 0
BITMAP
3300
3300
3300
0000
0000
FFE0
FFE0
C000
C000
C000
C000
C000
C000
C000
FFC0
FFC0
C000
C000
C000
C000
C000
C000
C000
FFE0
FFE0
ENDCHAR
STARTCHAR 00CD
ENCODING 205
SWIDTH 216 0
DWIDTH 6 0
BBX 6 26 1 0
BITMAP
04
1C
38
F0
40
00
60
60
60
60
60
60
60
60
60
60
60
60
60
60
60
60
60
60
60
60
ENDCHAR
STARTCHAR 00CE
ENCODING 206
SWIDTH 216 0
DWIDTH 6 0
BBX 8 25 -1 0
BITMAP
1C
7E
C3
00
00
18
18
18
18
18
18
18
18
18
18
18
18
18
18
18
18
18
18
18
18
ENDCHAR
STARTCHAR 00D3
ENCODING 211
SWIDTH 864 0
DWIDTH 24 0
BBX 21 25 1 1
BITMAP
000E00
001C00
007800
006000
000000
01FC00
07FF00
0E03C0
1800E0
300060
600030
600030
C00018
C00018
C00018
C00018
C00018
C00018
600030
600030
300060
1C00C0
0E0380
07FF00
01FC00
ENDCHAR
STARTCHAR 00D4
ENCODING 212
SWIDTH 864 0
DWIDTH 24 0
BBX 21 25 1 0
BITMAP
007000
00D800
038E00
000000
000000
01FC00
07FF00
0E03C0
1800E0
300060
600030
600030
C00018
C00018
C00018
C00018
C00018
C00018
600030
600030
300060
1C00C0
0E0380
07FF00
01FC00
ENDCHAR
STARTCHAR 00D5
ENCODING 213
SWIDTH 864 0
DWIDTH 24 0
BBX 21 25 1 0
BITMAP
01E000
03FE00
001C00
000000
000000
01FC00
07FF00
0E03C0
1800E0
300060
600030
600030
C00018
C00018
C00018
C00018
C00018
C00018
600030
600030
300060
1C00C0
0E0380
07FF00
01FC00
ENDCHAR
STARTCHAR 00D6
ENCODING 214
SWIDTH 864 0
DWIDTH 24 0
BBX 21 25 1 0
BITMAP
00CC00
00CC00
00CC00
000000
000000
00FC00
07FF00
0E03C0
1C00E0
300060
700030
600030
C00018
C00018
C00018
C00018
C00018
C00018
600030
700030
300060
1C00E0
0F03C0
07FF00
00FC00
ENDCHAR
STARTCHAR 00D7
ENCODING 215
SWIDTH 612 0
DWIDTH 17 0
BBX 13 13 2 1
BITMAP
4010
E038
7070
38E0
1DC0
0F80
0700
0F80
1DC0
38E0
7070
E038
4010
ENDCHAR
STARTCHAR 00DA
ENCODING 218
SWIDTH 648 0
DWIDTH 18 0
BBX 14 25 2 1
BITMAP
00E0
03C0
0700
0400
0000
C00C
C00C
C00C
C00C
C00C
C00C
C00C
C00C
C00C
C00C
C00C
C00C
C00C
C00C
C00C
E018
6018
7030
3FE0
0FC0
ENDCHAR
STARTCHAR 00DC
ENCODING 220
SWIDTH 648 0
DWIDTH 18 0
BBX 14 25 2 0
BITMAP
0CC0
0CC0
0CC0
0000
0000
C00C
C00C
C00C
C00C
C00C
C00C
C00C
C00C
C00C
C00C
C00C
C00C
C00C
C00C
C00C
E018
6018
7030
3FE0
0FC0
ENDCHAR
STARTCHAR 00DD
ENCODING 221
SWIDTH 576 0
DWIDTH 16 0
BBX 16 26 0 0
BITMAP
0020
0070
01E0
0380
0200
0000
E003
6006
700E
300C
381C
1818
1C38
0C30
0E60
0660
07C0
03C0
0180
0180
0180
0180
0180
0180
0180
0180
ENDCHAR
STARTCHAR 00DF
ENCODING 223
SWIDTH 540 0
DWIDTH 15 0
BBX 12 20 2 0
BITMAP
1F00
3F80
60C0
E060
C060
C060
C060
C0E0
C1C0
CF80
CFC0
C0E0
C070
C030
E030
E030
F030
F860
DFC0
CF80
ENDCHAR
STARTCHAR 00E1
ENCODING 225
SWIDTH 684 0
DWIDTH 19 0
BBX 16 21 1 1
BITMAP
0020
00F0
03C0
0300
0000
0000
07E3
1FFB
381F
700F
6007
C003
C003
C003
C003
C003
6007
700F
381F
1FFB
07E3
ENDCHAR
STARTCHAR 00E2
ENCODING 226
SWIDTH 684 0
DWIDTH 19 0
BBX 16 21 1 0
BITMAP
01C0
0760
0E30
0000
0000
0000
07E3
1FFB
381F
700F
6007
C003
C003
C003
C003
C003
6007
700F
381F
1FFB
07E3
ENDCHAR
STARTCHAR 00E4
ENCODING 228
SWIDTH 684 0
DWIDTH 19 0
BBX 16 21 1 0
BITMAP
0660
0660
0660
0000
0000
0000
07E3
1FFB
381F
700F
6007
C003
C003
C003
C003
C003
6007
700F
381F
1FFB
07E3
ENDCHAR
STARTCHAR 00E7
ENCODING 231
SWIDTH 648 0
DWIDTH 18 0
BBX 15 21 1 -7
BITMAP
07E0
1FF8
381C
700C
6006
C000
C000
C000
C000
C000
6006
700C
381C
1FF8
07E0
0100
0380
0040
0040
0240
0380
ENDCHAR
STARTCHAR 00E9
ENCODING 233
SWIDTH 648 0
DWIDTH 18 0
BBX 15 21 1 1
BITMAP
0040
01E0
0780
0600
0000
0000
07C0
1FF0
3818
600C
4006
C006
FFFE
FFFE
C000
C000
6006
600C
3818
1FF0
07C0
ENDCHAR
STARTCHAR 00EB
ENCODING 235
SWIDTH 648 0
DWIDTH 18 0
BBX 16 21 1 0
BITMAP
0660
0660
0660
0000
0000
0000
07E0
1FF8
381C
600C
6006
C006
FFFF
FFFF
C000
C000
6006
700C
381C
1FF0
07E0
ENDCHAR
STARTCHAR 00ED
ENCODING 237
SWIDTH 216 0
DWIDTH 6 0
BBX 6 22 1 0
BITMAP
04
0C
3C
F0
40
00
00
60
60
60
60
60
60
60
60
60
60
60
60
60
60
60
ENDCHAR
STARTCHAR 00EE
ENCODING 238
SWIDTH 216 0
DWIDTH 6 0
BBX 8 21 -1 0
BITMAP
3C
7E
C3
00
00
00
18
18
18
18
18
18
18
18
18
18
18
18
18
18
18
ENDCHAR
STARTCHAR 00F3
ENCODING 243
SWIDTH 648 0
DWIDTH 18 0
BBX 16 21 1 1
BITMAP
0030
00F0
03C0
0300
0000
0000
07E0
1FF8
381C
700E
6006
C003
C003
C003
C003
C003
6006
700E
381C
1FF8
07E0
ENDCHAR
STARTCHAR 00F4
ENCODING 244
SWIDTH 648 0
DWIDTH 18 0
BBX 16 21 1 0
BITMAP
03C0
07E0
0C30
0000
0000
0000
07E0
1FF8
381C
700E
6006
C003
C003
C003
C003
C003
6006
700E
381C
1FF8
07E0
ENDCHAR
STARTCHAR 00F5
ENCODING 245
SWIDTH 648 0
DWIDTH 18 0
BBX 16 20 1 0
BITMAP
1FF0
0FF8
0000
0000
0000
07E0
1FF8
381C
700E
6006
C003
C003
C003
C003
C003
6006
700E
381C
1FF8
07E0
ENDCHAR
STARTCHAR 00F6
ENCODING 246
SWIDTH 648 0
DWIDTH 18 0
BBX 16 21 1 0
BITMAP
0660
0660
0660
0000
0000
0000
07E0
1FF8
381C
700E
6006
C003
C003
C003
C003
C003
6006
700E
381C
1FF8
07E0
ENDCHAR
STARTCHAR 00F7
ENCODING 247
SWIDTH 612 0
DWIDTH 17 0
BBX 14 14 1 0
BITMAP
0300
0300
0300
0000
0000
0000
FFFC
FFFC
0000
0000
0000
0300
0300
0300
ENDCHAR
STARTCHAR 00FA
ENCODING 250
SWIDTH 612 0
DWIDTH 17 0
BBX 13 22 2 0
BITMAP
0040
00C0
03C0
0F00
0400
0000
0000
C018
C018
C018
C018
C018
C018
C018
C018
C018
C018
C018
6038
7078
3FD8
0F98
ENDCHAR
STARTCHAR 00FC
ENCODING 252
SWIDTH 612 0
DWIDTH 17 0
BBX 13 21 2 0
BITMAP
1980
1980
1980
0000
0000
0000
C018
C018
C018
C018
C018
C018
C018
C018
C018
C018
C018
6038
7078
3FD8
1F98
ENDCHAR
STARTCHAR 00FD
ENCODING 253
SWIDTH 540 0
DWIDTH 15 0
BBX 14 26 0 -4
BITMAP
00E0
03C0
0700
0400
0000
0000
C00C
6018
6018
6030
3030
3030
1860
1860
1CC0
0CC0
0D80
0780
0780
0300
0300
0600
0600
0C00
0C00
1800
ENDCHAR
STARTCHAR 0100
ENCODING 256
SWIDTH 756 0
DWIDTH 21 0
BBX 20 25 0 0
BITMAP
07FE00
07FE00
000000
000000
000000
006000
00F000
00F000
01B800
019800
039C00
030C00
030C00
060600
060600
0C0300
0FFF00
1FFF80
180180
3801C0
3000C0
3000C0
600060
600060
C00030
ENDCHAR
STARTCHAR 0101
ENCODING 257
SWIDTH 684 0
DWIDTH 19 0
BBX 16 20 1 0
BITMAP
0FF8
0FF8
0000
0000
0000
07E3
1FFB
381F
700F
6007
C003
C003
C003
C003
C003
6007
700F
381F
1FFB
07E3
ENDCHAR
STARTCHAR 0102
ENCODING 258
SWIDTH 756 0
DWIDTH 21 0
BBX 20 25 0 1
BITMAP
070E00
03FC00
00F000
000000
000000
006000
00F000
00F000
01B800
019800
039C00
030C00
030C00
060600
060600
0C0300
0FFF00
1FFF80
180180
3801C0
3000C0
3000C0
600060
600060
C00030
ENDCHAR
STARTCHAR 0103
ENCODING 259
SWIDTH 684 0
DWIDTH 19 0
BBX 16 20 1 0
BITMAP
0FF8
07E0
0000
0000
0000
07E3
1FFB
381F
700F
6007
C003
C003
C003
C003
C003
6007
700F
381F
1FFB
07E3
ENDCHAR
STARTCHAR 0104
ENCODING 260
SWIDTH 756 0
DWIDTH 21 0
BBX 21 25 0 -5
BITMAP
006000
00F000
00F000
01B800
019800
039C00
030C00
030E00
060600
060600
0C0700
0FFF00
1FFF80
180180
1801C0
3000C0
3000E0
600060
600070
E00030
000060
0000C0
0000C0
0000E0
000078
ENDCHAR
STARTCHAR 0105
ENCODING 261
SWIDTH 684 0
DWIDTH 19 0
BBX 16 20 1 -5
BITMAP
07E3
1FFB
381F
700F
6007
C003
C003
C003
C003
C003
6007
700F
381F
1FFB
07E3
0006
000C
000C
000C
0007
ENDCHAR
STARTCHAR 0106
ENCODING 262
SWIDTH 828 0
DWIDTH 23 0
BBX 19 25 1 1
BITMAP
000C00
001C00
007800
006000
000000
01FC00
07FF00
0E03C0
1800E0
300060
600000
600000
C00000
C00000
C00000
C00000
C00000
E00000
600000
700000
300060
1C00C0
0E0380
07FF00
01FC00
ENDCHAR
STARTCHAR 0107
ENCODING 263
SWIDTH 648 0
DWIDTH 18 0
BBX 15 21 1 1
BITMAP
0060
01E0
0780
0600
0000
0000
07E0
1FF8
381C
700E
6006
C000
C000
C000
C000
C000
6006
7006
381C
1FF8
07E0
ENDCHAR
STARTCHAR 010C
ENCODING 268
SWIDTH 828 0
DWIDTH 23 0
BBX 19 25 1 0
BITMAP
018600
00FC00
007000
000000
000000
01FC00
07FF00
0E03C0
1800E0
300060
600000
600000
C00000
C00000
C00000
C00000
C00000
E00000
600000
700000
300060
1C00C0
0E0380
07FF00
01FC00
ENDCHAR
STARTCHAR 010D
ENCODING 269
SWIDTH 648 0
DWIDTH 18 0
BBX 15 21 1 0
BITMAP
1C70
06E0
0380
0000
0000
0000
07E0
1FF8
381C
700E
6006
C000
C000
C000
C000
C000
6006
7006
381C
1FF8
07E0
ENDCHAR
STARTCHAR 010E
ENCODING 270
SWIDTH 756 0
DWIDTH 21 0
BBX 17 25 2 0
BITMAP
38E000
1D8000
070000
000000
000000
FFC000
FFF000
C03C00
C00E00
C00600
C00300
C00300
C00180
C00180
C00180
C00180
C00180
C00180
C00300
C00300
C00600
C00C00
C03800
FFF000
FFC000
ENDCHAR
STARTCHAR 010F
ENCODING 271
SWIDTH 756 0
DWIDTH 21 0
BBX 20 20 1 0
BITMAP
000310
000330
000320
000360
000360
07E300
1FFB00
381F00
700F00
600700
C00300
C00300
C00300
C00300
C00300
600700
700F00
381F00
1FFB00
07E300
ENDCHAR
STARTCHAR 0110
ENCODING 272
SWIDTH 792 0
DWIDTH 22 0
BBX 19 20 1 0
BITMAP
3FF000
3FFC00
300F00
300380
300180
3000C0
3000C0
300060
300060
FFC060
FFC060
300060
300060
3000C0
3000C0
300180
300380
300F00
3FFC00
3FF000
ENDCHAR
STARTCHAR 0111
ENCODING 273
SWIDTH 684 0
DWIDTH 19 0
BBX 18 20 1 0
BITMAP
000300
000300
003FC0
003FC0
000300
07E300
1FFB00
381F00
700F00
600700
C00300
C00300
C00300
C00300
C00300
600700
700F00
381F00
1FFB00
07E300
ENDCHAR
STARTCHAR 0112
ENCODING 274
SWIDTH 540 0
DWIDTH 15 0
BBX 11 25 2 0
BITMAP
7FC0
7FC0
0000
0000
0000
FFE0
FFE0
C000
C000
C000
C000
C000
C000
C000
FFE0
FFE0
C000
C000
C000
C000
C000
C000
C000
FFE0
FFE0
ENDCHAR
STARTCHAR 0113
ENCODING 275
SWIDTH 648 0
DWIDTH 18 0
BBX 15 20 1 0
BITMAP
1FF0
1FF0
0000
0000
0000
07C0
1FF0
3818
600C
4006
C006
FFFE
FFFE
C000
C000
6006
600C
3818
1FF0
07C0
ENDCHAR
STARTCHAR 0116
ENCODING 278
SWIDTH 540 0
DWIDTH 15 0
BBX 11 25 2 0
BITMAP
0C00
0C00
0C00
0000
0000
FFE0
FFE0
C000
C000
C000
C000
C000
C000
C000
FFC0
FFC0
C000
C000
C000
C000
C000
C000
C000
FFE0
FFE0
ENDCHAR
STARTCHAR 0117
ENCODING 279
SWIDTH 648 0
DWIDTH 18 0
BBX 16 21 1 0
BITMAP
0180
0180
0180
0000
0000
0000
07E0
1FF8
381C
600C
6006
C006
FFFF
FFFF
C000
C000
6006
700C
381C
1FF0
07E0
ENDCHAR
STARTCHAR 0118
ENCODING 280
SWIDTH 540 0
DWIDTH 15 0
BBX 12 25 2 -5
BITMAP
FFF0
FFF0
C000
C000
C000
C000
C000
C000
C000
FFF0
FFF0
C000
C000
C000
C000
C000
C000
C000
FFF0
FFF0
0040
0180
0180
0180
00F0
ENDCHAR
STARTCHAR 0119
ENCODING 281
SWIDTH 648 0
DWIDTH 18 0
BBX 16 20 1 -5
BITMAP
07E0
1FF8
381C
600E
6006
C003
FFFF
FFFF
C000
C000
6006
700E
381C
1FF8
07E0
0180
0300
0300
0380
01E0
ENDCHAR
STARTCHAR 011A
ENCODING 282
SWIDTH 540 0
DWIDTH 15 0
BBX 11 25 2 0
BITMAP
6180
3F00
0E00
0000
0000
FFE0
FFE0
C000
C000
C000
C000
C000
C000
C000
FFE0
FFE0
C000
C000
C000
C000
C000
C000
C000
FFE0
FFE0
ENDCHAR
STARTCHAR 011B
ENCODING 283
SWIDTH 648 0
DWIDTH 18 0
BBX 15 21 1 0
BITMAP
1C70
06C0
0380
0000
0000
0000
07C0
1FF0
3818
600C
4006
C006
FFFE
FFFE
C000
C000
6006
600C
3818
1FF0
07C0
ENDCHAR
STARTCHAR 0122
ENCODING 290
SWIDTH 864 0
DWIDTH 24 0
BBX 21 26 1 -6
BITMAP
00FC00
07FF00
0E03C0
1C00E0
300070
700030
600000
600000
C00000
C00000
C00000
C0FFF8
C0FFF8
600018
600030
300070
1C00E0
0E03C0
07FF00
01FC00
000000
003000
002000
006000
004000
00C000
ENDCHAR
STARTCHAR 0123
ENCODING 291
SWIDTH 684 0
DWIDTH 19 0
BBX 16 27 1 -5
BITMAP
00C0
00C0
0180
0180
0100
0000
0000
07E3
1FFB
381F
700F
6007
C003
C003
C003
C003
C003
6007
700F
381F
1FFB
07E3
6003
7006
380E
1FFC
07F0
ENDCHAR
STARTCHAR 012A
ENCODING 298
SWIDTH 216 0
DWIDTH 6 0
BBX 8 25 -1 0
BITMAP
FF
FF
00
00
00
18
18
18
18
18
18
18
18
18
18
18
18
18
18
18
18
18
18
18
18
ENDCHAR
STARTCHAR 012B
ENCODING 299
SWIDTH 216 0
DWIDTH 6 0
BBX 8 20 -1 0
BITMAP
FF
FF
00
00
00
18
18
18
18
18
18
18
18
18
18
18
18
18
18
18
ENDCHAR
STARTCHAR 012E
ENCODING 302
SWIDTH 216 0
DWIDTH 6 0
BBX 4 25 1 -5
BITMAP
60
60
60
60
60
60
60
60
60
60
60
60
60
60
60
60
60
60
60
60
40
C0
C0
C0
70
ENDCHAR
STARTCHAR 012F
ENCODING 303
SWIDTH 216 0
DWIDTH 6 0
BBX 5 25 0 -5
BITMAP
30
30
30
00
00
30
30
30
30
30
30
30
30
30
30
30
30
30
30
30
60
C0
C0
E0
78
ENDCHAR
STARTCHAR 0136
ENCODING 310
SWIDTH 576 0
DWIDTH 16 0
BBX 14 25 2 -5
BITMAP
C018
C038
C070
C0E0
C0C0
C180
C380
C700
CE00
CC00
DE00
F600
F700
E380
C1C0
C0C0
C060
C070
C038
C01C
0600
0600
0C00
0C00
1800
ENDCHAR
STARTCHAR 0137
ENCODING 311
SWIDTH 504 0
DWIDTH 14 0
BBX 11 25 2 -5
BITMAP
C000
C000
C000
C000
C000
C060
C0C0
C180
C380
C700
C600
CC00
DC00
FC00
F600
E700
C380
C1C0
C0C0
C060
0C00
0C00
1800
1800
3000
ENDCHAR
STARTCHAR 0139
ENCODING 313
SWIDTH 468 0
DWIDTH 13 0
BBX 10 26 2 0
BITMAP
0200
0E00
3C00
7000
2000
0000
C000
C000
C000
C000
C000
C000
C000
C000
C000
C000
C000
C000
C000
C000
C000
C000
C000
C000
FFC0
FFC0
ENDCHAR
STARTCHAR 013A
ENCODING 314
SWIDTH 216 0
DWIDTH 6 0
BBX 6 25 1 1
BITMAP
1C
78
E0
80
00
60
60
60
60
60
60
60
60
60
60
60
60
60
60
60
60
60
60
60
60
ENDCHAR
STARTCHAR 013B
ENCODING 315
SWIDTH 468 0
DWIDTH 13 0
BBX 10 26 2 -6
BITMAP
C000
C000
C000
C000
C000
C000
C000
C000
C000
C000
C000
C000
C000
C000
C000
C000
C000
C000
FFC0
FFC0
0000
0C00
0800
1800
1800
3000
ENDCHAR
STARTCHAR 013C
ENCODING 316
SWIDTH 216 0
DWIDTH 6 0
BBX 4 26 0 -6
BITMAP
30
30
30
30
30
30
30
30
30
30
30
30
30
30
30
30
30
30
30
30
00
30
30
60
60
C0
ENDCHAR
STARTCHAR 013D
ENCODING 317
SWIDTH 468 0
DWIDTH 13 0
BBX 10 20 2 0
BITMAP
C0C0
C080
C180
C180
C300
C000
C000
C000
C000
C000
C000
C000
C000
C000
C000
C000
C000
C000
FFC0
FFC0
ENDCHAR
STARTCHAR 013E
ENCODING 318
SWIDTH 252 0
DWIDTH 7 0
BBX 6 20 2 0
BITMAP
C4
CC
C8
D8
D8
C0
C0
C0
C0
C0
C0
C0
C0
C0
C0
C0
C0
C0
C0
C0
ENDCHAR
STARTCHAR 0141
ENCODING 321
SWIDTH 504 0
DWIDTH 14 0
BBX 12 20 2 0
BITMAP
3000
3000
3000
3000
3000
3100
3300
3600
3C00
3800
7000
F000
B000
3000
3000
3000
3000
3000
3FF0
3FF0
ENDCHAR
STARTCHAR 0142
ENCODING 322
SWIDTH 288 0
DWIDTH 8 0
BBX 6 20 1 0
BITMAP
30
30
30
30
30
30
30
3C
38
70
F0
B0
30
30
30
30
30
30
30
30
ENDCHAR
STARTCHAR 0143
ENCODING 323
SWIDTH 756 0
DWIDTH 21 0
BBX 16 25 2 1
BITMAP
0070
01E0
0380
0200
0000
E003
F003
F003
D803
DC03
CC03
C603
C703
C303
C183
C0C3
C0E3
C063
C033
C03B
C01B
C00F
C00F
C007
C003
ENDCHAR
STARTCHAR 0144
ENCODING 324
SWIDTH 612 0
DWIDTH 17 0
BBX 13 21 2 1
BITMAP
00C0
03C0
0700
0E00
0000
0000
CF80
DFE0
F070
E030
C018
C018
C018
C018
C018
C018
C018
C018
C018
C018
C018
ENDCHAR
STARTCHAR 0145
ENCODING 325
SWIDTH 756 0
DWIDTH 21 0
BBX 16 25 2 -5
BITMAP
E003
F003
F003
D803
DC03
CC03
C603
C703
C303
C183
C0C3
C0E3
C063
C033
C03B
C01B
C00F
C00F
C007
C003
0180
0180
0300
0300
0600
ENDCHAR
STARTCHAR 0146
ENCODING 326
SWIDTH 612 0
DWIDTH 17 0
BBX 13 20 2 -5
BITMAP
CF80
DFE0
F070
E030
C018
C018
C018
C018
C018
C018
C018
C018
C018
C018
C018
0300
0600
0600
0C00
0C00
ENDCHAR
STARTCHAR 0147
ENCODING 327
SWIDTH 756 0
DWIDTH 21 0
BBX 16 25 2 0
BITMAP
0C30
07E0
0380
0000
0000
E003
F003
F003
D803
DC03
CC03
C603
C703
C303
C183
C0C3
C0E3
C063
C033
C03B
C01B
C00F
C00F
C007
C003
ENDCHAR
STARTCHAR 0148
ENCODING 328
SWIDTH 612 0
DWIDTH 17 0
BBX 13 21 2 0
BITMAP
38C0
1D80
0700
0000
0000
0000
CF80
DFE0
F070
E030
C018
C018
C018
C018
C018
C018
C018
C018
C018
C018
C018
ENDCHAR
STARTCHAR 014C
ENCODING 332
SWIDTH 864 0
DWIDTH 24 0
BBX 21 25 1 0
BITMAP
03FE00
03FE00
000000
000000
000000
01FC00
07FF00
0E03C0
1800E0
300060
600030
600030
C00018
C00018
C00018
C00018
C00018
C00018
600030
600030
300060
1C00C0
0E0380
07FF00
01FC00
ENDCHAR
STARTCHAR 014D
ENCODING 333
SWIDTH 648 0
DWIDTH 18 0
BBX 16 20 1 0
BITMAP
1FF8
1FF8
0000
0000
0000
07E0
1FF8
381C
700E
6006
C003
C003
C003
C003
C003
6006
700E
381C
1FF8
07E0
ENDCHAR
STARTCHAR 0150
ENCODING 336
SWIDTH 864 0
DWIDTH 24 0
BBX 21 25 1 1
BITMAP
0018C0
003180
006700
00C600
000400
01FC00
07FF00
0E03C0
1800E0
300060
600030
600030
C00018
C00018
C00018
C00018
C00018
C00018
600030
600030
300060
1C00C0
0E0380
07FF00
01FC00
ENDCHAR
STARTCHAR 0151
ENCODING 337
SWIDTH 648 0
DWIDTH 18 0
BBX 16 21 1 1
BITMAP
00C4
01CC
0318
0E70
0420
0000
07E0
1FF8
381C
700E
6006
C003
C003
C003
C003
C003
6006
700E
381C
1FF8
07E0
ENDCHAR
STARTCHAR 0154
ENCODING 340
SWIDTH 612 0
DWIDTH 17 0
BBX 14 25 2 1
BITMAP
01C0
0780
1E00
0800
0000
FFC0
FFF0
C078
C018
C00C
C00C
C00C
C00C
C00C
C018
C078
CFF0
C7C0
C300
C180
C0C0
C0E0
C070
C030
C018
ENDCHAR
STARTCHAR 0155
ENCODING 341
SWIDTH 288 0
DWIDTH 8 0
BBX 7 21 2 1
BITMAP
06
1E
38
70
00
00
CC
DC
F0
E0
C0
C0
C0
C0
C0
C0
C0
C0
C0
C0
C0
ENDCHAR
STARTCHAR 0156
ENCODING 342
SWIDTH 612 0
DWIDTH 17 0
BBX 14 25 2 -5
BITMAP
FFC0
FFF0
C078
C018
C00C
C00C
C00C
C00C
C00C
C018
C078
CFF0
C7C0
C300
C180
C0C0
C0E0
C070
C030
C018
0300
0600
0600
0C00
0C00
ENDCHAR
STARTCHAR 0157
ENCODING 343
SWIDTH 288 0
DWIDTH 8 0
BBX 7 21 1 -6
BITMAP
66
6E
78
70
60
60
60
60
60
60
60
60
60
60
60
00
60
60
40
C0
80
ENDCHAR
STARTCHAR 0158
ENCODING 344
SWIDTH 612 0
DWIDTH 17 0
BBX 14 25 2 0
BITMAP
38E0
1D80
0700
0000
0000
FFC0
FFF0
C078
C018
C00C
C00C
C00C
C00C
C00C
C018
C078
CFF0
C7C0
C300
C180
C0C0
C0E0
C070
C030
C018
ENDCHAR
STARTCHAR 0159
ENCODING 345
SWIDTH 288 0
DWIDTH 8 0
BBX 8 21 1 0
BITMAP
C3
7E
3C
00
00
00
66
6E
78
70
60
60
60
60
60
60
60
60
60
60
60
ENDCHAR
STARTCHAR 015A
ENCODING 346
SWIDTH 504 0
DWIDTH 14 0
BBX 11 25 1 1
BITMAP
0300
0700
1E00
1800
0000
1F00
3FC0
60C0
C060
C060
C000
C000
7000
7C00
1F80
03C0
00C0
0060
0060
C060
C060
E060
70C0
3F80
1F00
ENDCHAR
STARTCHAR 015B
ENCODING 347
SWIDTH 396 0
DWIDTH 11 0
BBX 9 21 1 1
BITMAP
0600
0F00
3C00
3000
0000
0000
3C00
7E00
C300
C300
C000
E000
7C00
1F00
0700
0180
C180
C180
E380
7F00
3E00
ENDCHAR
STARTCHAR 0160
ENCODING 352
SWIDTH 504 0
DWIDTH 14 0
BBX 11 25 1 0
BITMAP
7180
1B00
0E00
0000
0000
1F00
3FC0
60C0
C060
C060
C000
C000
7000
7C00
1F80
03C0
00C0
0060
0060
C060
C060
E060
70C0
3F80
1F00
ENDCHAR
STARTCHAR 0161
ENCODING 353
SWIDTH 396 0
DWIDTH 11 0
BBX 9 21 1 0
BITMAP
E300
7E00
1C00
0000
0000
0000
3C00
7E00
C300
C300
C000
E000
7C00
1F00
0700
0180
C180
C180
E380
7F00
3E00
ENDCHAR
STARTCHAR 0162
ENCODING 354
SWIDTH 432 0
DWIDTH 12 0
BBX 12 26 0 -6
BITMAP
FFF0
FFF0
0600
0600
0600
0600
0600
0600
0600
0600
0600
0600
0600
0600
0600
0600
0600
0600
0600
0600
0000
0600
0400
0C00
0C00
1800
ENDCHAR
STARTCHAR 0163
ENCODING 355
SWIDTH 324 0
DWIDTH 9 0
BBX 9 26 0 -6
BITMAP
1800
1800
1800
1800
1800
FF80
FF80
1800
1800
1800
1800
1800
1800
1800
1800
1800
1800
1800
1800
1800
0000
1800
1800
1000
3000
2000
ENDCHAR
STARTCHAR 0164
ENCODING 356
SWIDTH 432 0
DWIDTH 12 0
BBX 12 25 0 0
BITMAP
31C0
1F80
0E00
0000
0000
FFF0
FFF0
0600
0600
0600
0600
0600
0600
0600
0600
0600
0600
0600
0600
0600
0600
0600
0600
0600
0600
ENDCHAR
STARTCHAR 0165
ENCODING 357
SWIDTH 360 0
DWIDTH 10 0
BBX 10 21 0 0
BITMAP
00C0
18C0
1980
1980
1B00
1800
FF80
FF80
1800
1800
1800
1800
1800
1800
1800
1800
1800
1800
1800
1800
1800
ENDCHAR
STARTCHAR 016A
ENCODING 362
SWIDTH 648 0
DWIDTH 18 0
BBX 14 25 2 0
BITMAP
3FF0
3FF0
0000
0000
0000
C00C
C00C
C00C
C00C
C00C
C00C
C00C
C00C
C00C
C00C
C00C
C00C
C00C
C00C
C00C
E018
6018
7030
3FE0
0FC0
ENDCHAR
STARTCHAR 016B
ENCODING 363
SWIDTH 612 0
DWIDTH 17 0
BBX 13 20 2 0
BITMAP
3FE0
3FE0
0000
0000
0000
C018
C018
C018
C018
C018
C018
C018
C018
C018
C018
C018
6038
7078
3FD8
0F98
ENDCHAR
STARTCHAR 016E
ENCODING 366
SWIDTH 648 0
DWIDTH 18 0
BBX 14 27 2 0
BITMAP
0300
0780
0CC0
0CC0
0CC0
0780
0380
C00C
C00C
C00C
C00C
C00C
C00C
C00C
C00C
C00C
C00C
C00C
C00C
C00C
C00C
C00C
E018
6018
3030
3FE0
0FC0
ENDCHAR
STARTCHAR 016F
ENCODING 367
SWIDTH 612 0
DWIDTH 17 0
BBX 13 23 2 0
BITMAP
0700
0F80
18C0
18C0
18C0
0F80
0700
0000
C018
C018
C018
C018
C018
C018
C018
C018
C018
C018
C018
6038
7078
3FD8
0F98
ENDCHAR
STARTCHAR 0170
ENCODING 368
SWIDTH 648 0
DWIDTH 18 0
BBX 14 26 2 0
BITMAP
0108
0398
0630
1CE0
18C0
0000
C00C
C00C
C00C
C00C
C00C
C00C
C00C
C00C
C00C
C00C
C00C
C00C
C00C
C00C
C00C
E018
6018
7030
3FE0
0FC0
ENDCHAR
STARTCHAR 0171
ENCODING 369
SWIDTH 612 0
DWIDTH 17 0
BBX 13 21 2 1
BITMAP
0338
0670
1CE0
1880
0000
0000
C018
C018
C018
C018
C018
C018
C018
C018
C018
C018
C018
6038
7078
3FD8
0F98
ENDCHAR
STARTCHAR 0172
ENCODING 370
SWIDTH 648 0
DWIDTH 18 0
BBX 14 25 2 -5
BITMAP
C00C
C00C
C00C
C00C
C00C
C00C
C00C
C00C
C00C
C00C
C00C
C00C
C00C
C00C
C00C
E018
6018
3830
1FF0
0FC0
0300
0600
0600
0700
03C0
ENDCHAR
STARTCHAR 0173
ENCODING 371
SWIDTH 612 0
DWIDTH 17 0
BBX 13 20 2 -5
BITMAP
C018
C018
C018
C018
C018
C018
C018
C018
C018
C018
C018
6038
7078
3FD8
0F98
0030
0060
0060
0060
0038
ENDCHAR
STARTCHAR 0179
ENCODING 377
SWIDTH 468 0
DWIDTH 13 0
BBX 12 25 0 1
BITMAP
0380
0F00
1C00
0800
0000
FFF0
FFF0
0070
0060
00C0
01C0
0180
0380
0300
0600
0600
0C00
1C00
1800
3000
3000
6000
E000
FFF0
FFF0
ENDCHAR
STARTCHAR 017A
ENCODING 378
SWIDTH 432 0
DWIDTH 12 0
BBX 11 21 0 1
BITMAP
0300
0F00
1C00
1000
0000
0000
FFE0
FFE0
00C0
0180
0380
0300
0600
0C00
1C00
1800
3000
7000
6000
FFE0
FFE0
ENDCHAR
STARTCHAR 017B
ENCODING 379
SWIDTH 468 0
DWIDTH 13 0
BBX 12 25 0 0
BITMAP
0600
0600
0600
0000
0000
FFF0
FFF0
0070
0060
00C0
00C0
0180
0380
0300
0600
0600
0C00
1C00
1800
3000
7000
6000
E000
FFF0
FFF0
ENDCHAR
STARTCHAR 017C
ENCODING 380
SWIDTH 432 0
DWIDTH 12 0
BBX 11 21 0 0
BITMAP
0600
0600
0600
0000
0000
0000
7FE0
7FE0
00C0
01C0
0180
0300
0700
0600
0C00
1800
3800
3000
6000
FFE0
FFE0
ENDCHAR
STARTCHAR 017D
ENCODING 381
SWIDTH 468 0
DWIDTH 13 0
BBX 12 25 0 0
BITMAP
31C0
1F80
0E00
0000
0000
FFF0
FFF0
0070
0060
00C0
01C0
0180
0380
0300
0600
0E00
0C00
1C00
1800
3000
3000
6000
E000
FFF0
FFF0
ENDCHAR
STARTCHAR 017E
ENCODING 382
SWIDTH 432 0
DWIDTH 12 0
BBX 11 21 0 0
BITMAP
71C0
1B00
0E00
0000
0000
0000
FFE0
FFE0
00C0
0180
0380
0300
0600
0C00
1C00
1800
3000
7000
6000
FFE0
FFE0
ENDCHAR
STARTCHAR 0218
ENCODING 536
SWIDTH 504 0
DWIDTH 14 0
BBX 11 26 1 -6
BITMAP
1F00
3FC0
60C0
C060
C060
C000
C000
7000
7C00
1F80
03C0
00C0
0060
0060
C060
C060
E060
70C0
3F80
1F00
0000
0600
0C00
0C00
1800
1800
ENDCHAR
STARTCHAR 0219
ENCODING 537
SWIDTH 396 0
DWIDTH 11 0
BBX 9 21 1 -6
BITMAP
3C00
7E00
C300
C300
C000
E000
7C00
1F00
0700
0180
C180
C180
E380
7F00
3E00
0000
1800
1800
1000
3000
2000
ENDCHAR
STARTCHAR 021A
ENCODING 538
SWIDTH 432 0
DWIDTH 12 0
BBX 12 26 0 -6
BITMAP
FFF0
FFF0
0600
0600
0600
0600
0600
0600
0600
0600
0600
0600
0600
0600
0600
0600
0600
0600
0600
0600
0000
0600
0400
0C00
0C00
1800
ENDCHAR
STARTCHAR 021B
ENCODING 539
SWIDTH 324 0
DWIDTH 9 0
BBX 9 26 0 -6
BITMAP
1800
1800
1800
1800
1800
FF80
FF80
1800
1800
1800
1800
1800
1800
1800
1800
1800
1800
1800
1800
1800
0000
1800
1800
1000
3000
2000
ENDCHAR
STARTCHAR 02C7
ENCODING 711
SWIDTH 504 0
DWIDTH 14 0
BBX 8 3 3 18
BITMAP
C3
7E
3C
ENDCHAR
STARTCHAR 02D8
ENCODING 728
SWIDTH 468 0
DWIDTH 13 0
BBX 10 2 1 18
BITMAP
FFC0
3F00
ENDCHAR
STARTCHAR 02D9
ENCODING 729
SWIDTH 216 0
DWIDTH 6 0
BBX 2 3 2 18
BITMAP
C0
C0
C0
ENDCHAR
STARTCHAR 02DB
ENCODING 731
SWIDTH 288 0
DWIDTH 8 0
BBX 5 5 2 -4
BITMAP
20
C0
C0
C0
78
ENDCHAR
STARTCHAR 02DD
ENCODING 733
SWIDTH 540 0
DWIDTH 15 0
BBX 10 4 3 17
BITMAP
18C0
3180
6700
C600
ENDCHAR
STARTCHAR 0394
ENCODING 916
SWIDTH 612 0
DWIDTH 17 0
BBX 16 19 0 0
BITMAP
0080
0080
0180
01C0
01C0
02E0
02E0
0460
0470
0870
0838
1838
1018
301C
201C
200E
400E
4006
FFFF
ENDCHAR
STARTCHAR 03BC
ENCODING 956
SWIDTH 612 0
DWIDTH 17 0
BBX 12 20 2 -5
BITMAP
C030
C030
C030
C030
C030
C030
C030
C030
C030
C030
C030
E070
F0F0
FFB0
CF30
C000
C000
C000
C000
C000
ENDCHAR
STARTCHAR 2013
ENCODING 8211
SWIDTH 504 0
DWIDTH 14 0
BBX 12 2 1 7
BITMAP
FFF0
FFF0
ENDCHAR
STARTCHAR 2014
ENCODING 8212
SWIDTH 1008 0
DWIDTH 28 0
BBX 25 2 1 7
BITMAP
FFFFFF80
FFFFFF80
ENDCHAR
STARTCHAR 2018
ENCODING 8216
SWIDTH 360 0
DWIDTH 10 0
BBX 4 5 3 14
BITMAP
C0
40
60
60
30
ENDCHAR
STARTCHAR 2019
ENCODING 8217
SWIDTH 360 0
DWIDTH 10 0
BBX 4 5 3 14
BITMAP
30
60
60
C0
C0
ENDCHAR
STARTCHAR 201A
ENCODING 8218
SWIDTH 360 0
DWIDTH 10 0
BBX 4 5 2 -2
BITMAP
30
60
60
C0
C0
ENDCHAR
STARTCHAR 201C
ENCODING 8220
SWIDTH 504 0
DWIDTH 14 0
BBX 8 5 3 14
BITMAP
CC
6C
66
66
33
ENDCHAR
STARTCHAR 201D
ENCODING 8221
SWIDTH 468 0
DWIDTH 13 0
BBX 8 5 3 14
BITMAP
33
26
66
64
CC
ENDCHAR
STARTCHAR 201E
ENCODING 8222
SWIDTH 504 0
DWIDTH 14 0
BBX 8 5 2 -2
BITMAP
33
36
66
6C
CC
ENDCHAR
STARTCHAR 2020
ENCODING 8224
SWIDTH 540 0
DWIDTH 15 0
BBX 12 24 1 -4
BITMAP
0600
0600
0600
0600
0600
FFF0
FFF0
0600
0600
0600
0600
0600
0600
0600
0600
0600
0600
0600
0600
0600
0600
0600
0600
0600
ENDCHAR
STARTCHAR 2021
ENCODING 8225
SWIDTH 540 0
DWIDTH 15 0
BBX 12 24 1 -4
BITMAP
0600
0600
0600
0600
0600
FFF0
FFF0
0600
0600
0600
0600
0600
0600
0600
0600
0600
FFF0
FFF0
0600
0600
0600
0600
0600
0600
ENDCHAR
STARTCHAR 2022
ENCODING 8226
SWIDTH 612 0
DWIDTH 17 0
BBX 8 9 4 6
BITMAP
3C
7E
FF
FF
FF
FF
FF
7E
3C
ENDCHAR
STARTCHAR 2026
ENCODING 8230
SWIDTH 1008 0
DWIDTH 28 0
BBX 20 3 4 1
BITMAP
C06030
C06030
C06030
ENDCHAR
STARTCHAR 2030
ENCODING 8240
SWIDTH 1188 0
DWIDTH 33 0
BBX 31 20 1 0
BITMAP
1E030000
7F830000
61860000
C0C40000
C0CC0000
C0C80000
61980000
7FB00000
1E300000
00600000
00400040
00CFC3F8
0098671C
01B03E0E
03303C06
03303C06
06303C06
0418660C
0C1FE3F8
080781F0
ENDCHAR
STARTCHAR 2039
ENCODING 8249
SWIDTH 252 0
DWIDTH 7 0
BBX 5 11 1 2
BITMAP
10
38
30
60
60
C0
60
60
30
38
10
ENDCHAR
STARTCHAR 203A
ENCODING 8250
SWIDTH 252 0
DWIDTH 7 0
BBX 5 11 1 2
BITMAP
40
E0
60
30
30
18
30
30
60
E0
40
ENDCHAR
STARTCHAR 20AC
ENCODING 8364
SWIDTH 540 0
DWIDTH 15 0
BBX 13 20 0 0
BITMAP
03F0
07F8
0E08
1800
1800
1000
3000
7FF0
FFF0
3000
3000
7FE0
FFC0
3000
1000
1800
1C00
0E08
07F8
03F0
ENDCHAR
STARTCHAR 2122
ENCODING 8482
SWIDTH 1008 0
DWIDTH 28 0
BBX 23 12 0 8
BITMAP
FF700E
18700E
18781E
186816
186C36
186C26
186466
186666
186246
1863C6
186186
186186
ENDCHAR
STARTCHAR 2202
ENCODING 8706
SWIDTH 468 0
DWIDTH 13 0
BBX 11 21 1 -1
BITMAP
3E00
7F00
0180
00C0
00C0
0060
0060
0060
0060
1E60
3F60
70E0
6060
C060
C060
C0E0
C0C0
C0C0
4180
6300
1E00
ENDCHAR
STARTCHAR 2206
ENCODING 8710
SWIDTH 612 0
DWIDTH 17 0
BBX 16 19 0 0
BITMAP
0080
0080
0180
01C0
01C0
02E0
02E0
0460
0470
0870
0838
1838
1018
301C
201C
200E
400E
4006
FFFF
ENDCHAR
STARTCHAR 2211
ENCODING 8721
SWIDTH 612 0
DWIDTH 17 0
BBX 15 20 1 0
BITMAP
FFF8
7FF8
7008
3800
1800
0C00
0E00
0700
0380
0180
01C0
0180
0300
0600
0C00
0802
1802
3004
7FFC
FFFC
ENDCHAR
STARTCHAR 2219
ENCODING 8729
SWIDTH 288 0
DWIDTH 8 0
BBX 2 3 3 5
BITMAP
C0
C0
C0
ENDCHAR
STARTCHAR 221A
ENCODING 8730
SWIDTH 468 0
DWIDTH 13 0
BBX 12 22 0 -3
BITMAP
0030
0030
0030
0020
0020
0020
0060
0060
0060
3060
D040
1840
08C0
0CC0
04C0
06C0
0280
0380
0180
0180
0080
0080
ENDCHAR
STARTCHAR 2260
ENCODING 8800
SWIDTH 540 0
DWIDTH 15 0
BBX 14 16 0 -1
BITMAP
0020
0070
0060
00C0
FFFC
FFFC
0380
0300
0700
0600
FFFC
FFFC
1800
1800
3000
1000
ENDCHAR
STARTCHAR 2264
ENCODING 8804
SWIDTH 540 0
DWIDTH 15 0
BBX 14 18 1 1
BITMAP
0004
003C
00F8
03E0
0F00
7C00
F000
F000
7C00
1F00
03C0
00F8
003C
0004
0000
0000
FFFC
FFFC
ENDCHAR
STARTCHAR 2265
ENCODING 8805
SWIDTH 540 0
DWIDTH 15 0
BBX 14 18 1 1
BITMAP
8000
F000
7C00
1F00
03C0
00F8
003C
003C
00F8
03E0
0F00
7C00
F000
8000
0000
0000
FFFC
FFFC
ENDCHAR
STARTCHAR 25CA
ENCODING 9674
SWIDTH 468 0
DWIDTH 13 0
BBX 12 20 0 0
BITMAP
0600
0700
0F00
1F80
1980
39C0
30C0
6060
6060
C030
C030
6060
6060
30C0
30C0
1980
1980
0F00
0F00
0600
ENDCHAR
ENDFONT
